<svg width="24" height="24" viewBox="0 0 24 24" fill="none" xmlns="http://www.w3.org/2000/svg">
<g id="Frame" clip-path="url(#clip0_2362_5445)">
<path id="Vector" d="M3.23274 18.8751V5.12506C3.23274 4.09006 4.06114 3.25006 5.08184 3.25006H13.0946V2.00006H4.46548C3.1033 2.00006 2 3.11881 2 4.50006V19.5001C2 20.8813 3.1033 22.0001 4.46548 22.0001H13.0946V20.7501H5.08184C4.05991 20.7501 3.23274 19.9101 3.23274 18.8751ZM22.8197 11.5576L18.4608 7.13756C18.2204 6.89381 17.8296 6.89381 17.5892 7.13756C17.3488 7.38131 17.3488 7.77756 17.5892 8.02131L20.8954 11.3738H8.78006C8.43982 11.3738 8.16369 11.6538 8.16369 11.9988C8.16369 12.3438 8.43982 12.6238 8.78006 12.6238H20.8954L17.5892 15.9763C17.3488 16.2201 17.3488 16.6163 17.5892 16.8601C17.8296 17.1038 18.2204 17.1038 18.4608 16.8601L22.8197 12.4401C23.0601 12.1976 23.0601 11.8026 22.8197 11.5576Z" fill="white" stroke="white" stroke-width="0.3"/>
</g>
<defs>
<clipPath id="clip0_2362_5445">
<rect width="24" height="24" fill="white"/>
</clipPath>
</defs>
</svg>
