<svg width="24" height="24" viewBox="0 0 24 24" fill="none" xmlns="http://www.w3.org/2000/svg">
<g id="Frame" clip-path="url(#clip0_2362_5433)">
<path id="Vector" d="M21.741 10.9125C21.6405 5.54779 17.4818 1.21429 12.375 1.21429H11.625C6.51825 1.21429 2.3595 5.54779 2.259 10.9118C1.362 11.4315 0.75 12.3908 0.75 13.5V15C0.75 16.6545 2.0955 18 3.75 18C5.4045 18 6.75 16.6545 6.75 15V13.5C6.74886 12.7099 6.43622 11.9522 5.87993 11.3911C5.32364 10.83 4.56856 10.5109 3.7785 10.503C4.07175 6.1568 7.4745 2.71429 11.625 2.71429H12.375C16.5262 2.71429 19.9282 6.1568 20.2215 10.503C19.4314 10.5109 18.6764 10.83 18.1201 11.3911C17.5638 11.9522 17.2511 12.7099 17.25 13.5V15C17.25 16.3545 18.1575 17.4885 19.392 17.8598C18.2779 19.3263 16.6869 20.3581 14.8935 20.7773C14.7697 20.406 14.5324 20.0829 14.215 19.8537C13.8977 19.6246 13.5164 19.5008 13.125 19.5C12.6277 19.5 12.1508 19.6976 11.7992 20.0492C11.4475 20.4009 11.25 20.8778 11.25 21.375C11.25 21.8723 11.4475 22.3492 11.7992 22.7009C12.1508 23.0525 12.6277 23.25 13.125 23.25C13.4444 23.2496 13.7584 23.1673 14.0369 23.0109C14.3154 22.8545 14.5491 22.6293 14.7157 22.3568C16.0674 22.1203 17.3511 21.5918 18.4774 20.8081C19.6037 20.0244 20.5455 19.0044 21.237 17.8193C22.4055 17.4098 23.25 16.3073 23.25 15V13.5C23.25 12.3908 22.638 11.4315 21.741 10.9125ZM5.25 13.5V15C5.25 15.8273 4.57725 16.5 3.75 16.5C2.92275 16.5 2.25 15.8273 2.25 15V13.5C2.25 12.6728 2.92275 12 3.75 12C4.57725 12 5.25 12.6728 5.25 13.5ZM21.75 15C21.75 15.804 21.1125 16.4573 20.3175 16.4933L20.259 16.4655C20.2537 16.4775 20.2455 16.4873 20.2402 16.4985C19.8444 16.496 19.4656 16.337 19.1864 16.0563C18.9073 15.7756 18.7504 15.3959 18.75 15V13.5C18.75 12.6728 19.4228 12 20.25 12C21.0772 12 21.75 12.6728 21.75 13.5V15Z" fill="white"/>
</g>
<defs>
<clipPath id="clip0_2362_5433">
<rect width="24" height="24" fill="white"/>
</clipPath>
</defs>
</svg>
