<svg width="24" height="24" viewBox="0 0 24 24" fill="none" xmlns="http://www.w3.org/2000/svg">
<g id="Frame" clip-path="url(#clip0_2362_5451)">
<path id="Vector" d="M21.8652 18.6732H21.8672V18.6617L21.8652 18.6732Z" fill="white"/>
<path id="Vector_2" d="M23.2182 11.0086C22.9313 10.7153 22.4267 10.7129 22.1357 10.9986L21.6335 11.4924C21.3675 5.84697 16.7804 1.45197 11.1084 1.45197C5.29225 1.45197 0.560547 6.18367 0.560547 11.9999C0.560547 17.8165 5.29225 22.5482 11.1084 22.5482C14.208 22.5482 17.1413 21.1764 19.1454 18.7977C19.2346 18.7294 19.307 18.6475 19.3616 18.555C19.3689 18.5462 19.3769 18.5373 19.385 18.5293L19.4364 18.4473L19.4195 18.4385C19.454 18.3477 19.4701 18.2601 19.4701 18.1701C19.4701 17.7305 19.1133 17.3729 18.6738 17.3729C18.4094 17.3729 18.1618 17.5135 18.018 17.7417C16.3006 19.8047 13.7821 20.9884 11.1085 20.9884C6.15256 20.9884 2.11917 16.9566 2.11917 11.9999C2.11917 7.04434 6.15256 3.01138 11.1085 3.01138C16.0323 3.01138 20.0439 6.99014 20.0962 11.9015L19.2018 11.0042C18.9132 10.7137 18.4078 10.7129 18.1193 11.0018C17.8187 11.3008 17.8187 11.787 18.1176 12.0863L20.0061 13.9792C20.15 14.1247 20.3429 14.2042 20.5469 14.2042L20.5558 14.2035L20.5759 14.2099C20.6193 14.2203 20.6667 14.2332 20.7189 14.2332C20.9206 14.2332 21.1111 14.1552 21.2558 14.0138L23.2094 12.0915C23.3556 11.9481 23.4376 11.7548 23.4392 11.5499C23.4408 11.3457 23.362 11.1541 23.2182 11.0086Z" fill="white"/>
</g>
<defs>
<clipPath id="clip0_2362_5451">
<rect width="24" height="24" fill="white"/>
</clipPath>
</defs>
</svg>
