<svg width="24" height="24" viewBox="0 0 24 24" fill="none" xmlns="http://www.w3.org/2000/svg">
<g id="Frame" clip-path="url(#clip0_2362_5470)">
<path id="Vector" d="M20.5938 12.1719H11.8281V3.40631C11.8281 2.08287 10.7453 1.00006 9.42187 1.00006H3.40625C2.08281 1.00006 1 2.08287 1 3.40631V17.1563C1 18.4797 2.08281 19.5626 3.40625 19.5626H4.4375V20.5938C4.4375 21.9172 5.52031 23.0001 6.84375 23.0001H20.5938C21.9172 23.0001 23 21.9172 23 20.5938V14.5782C23 13.2376 21.9344 12.1719 20.5938 12.1719ZM4.4375 14.5782V18.1876H3.40625C2.83906 18.1876 2.375 17.7235 2.375 17.1563V3.40631C2.375 2.83912 2.83906 2.37506 3.40625 2.37506H9.42187C9.98906 2.37506 10.4531 2.83912 10.4531 3.40631V12.1719H6.84375C5.52031 12.1719 4.4375 13.2376 4.4375 14.5782ZM21.625 20.5938C21.625 21.161 21.1609 21.6251 20.5938 21.6251H6.84375C6.27656 21.6251 5.8125 21.161 5.8125 20.5938V14.5782C5.8125 14.011 6.27656 13.5469 6.84375 13.5469H20.5938C21.1609 13.5469 21.625 14.011 21.625 14.5782V20.5938Z" fill="white" stroke="white" stroke-width="0.2"/>
<path id="Vector_2" d="M16.7859 6.88508L15.6909 5.79008H17.2809C18.6009 5.79008 19.6809 6.87008 19.6809 8.19008V10.4851H20.8809V8.19008C20.8809 6.21008 19.2609 4.59008 17.2809 4.59008H15.6909L16.7859 3.49508L15.9309 2.64008L13.3809 5.19008L15.9309 7.74008L16.7859 6.88508Z" fill="white" stroke="white" stroke-width="0.2"/>
</g>
<defs>
<clipPath id="clip0_2362_5470">
<rect width="24" height="24" fill="white"/>
</clipPath>
</defs>
</svg>
